{
  "accessors": [
    {
      "bufferView": 2,
      "componentType": 5126,
      "count": 541,
      "max": [
        0.9903810620307922,
        1.0233389139175415,
        7.96175479888916
      ],
      "min": [
        -1.0786868333816528,
        -1.0981365442276,
        -5.226625442504883
      ],
      "type": "VEC3"
    },
    {
      "bufferView": 2,
      "byteOffset": 6492,
      "componentType": 5126,
      "count": 541,
      "max": [
        0.9973558187484741,
        0.9973558187484741,
        0.997381865978241
      ],
      "min": [
        -0.9973558783531189,
        -0.9973558187484741,
        -0.9999982714653015
      ],
      "type": "VEC3"
    },
    {
      "bufferView": 1,
      "componentType": 5126,
      "count": 541,
      "max": [
        0.28288888931274414,
        0.38706183433532715
      ],
      "min": [
        0.0,
        0.0
      ],
      "type": "VEC2"
    },
    {
      "bufferView": 1,
      "byteOffset": 4328,
      "componentType": 5126,
      "count": 541,
      "max": [
        0.4524289071559906,
        0.12551701068878174
      ],
      "min": [
        0.0,
        0.0
      ],
      "type": "VEC2"
    },
    {
      "bufferView": 0,
      "componentType": 5125,
      "count": 2136,
      "type": "SCALAR"
    },
    {
      "bufferView": 2,
      "byteOffset": 12984,
      "componentType": 5126,
      "count": 2591,
      "max": [
        0.48660191893577576,
        0.4478929042816162,
        9.77827262878418
      ],
      "min": [
        -0.5845156908035278,
        -0.5578751564025879,
        7.691345691680908
      ],
      "type": "VEC3"
    },
    {
      "bufferView": 2,
      "byteOffset": 44076,
      "componentType": 5126,
      "count": 2591,
      "max": [
        0.9964699745178223,
        0.9974833130836487,
        0.9989759922027588
      ],
      "min": [
        -0.9863557815551758,
        -0.9989746809005737,
        -0.9976585507392883
      ],
      "type": "VEC3"
    },
    {
      "bufferView": 1,
      "byteOffset": 8656,
      "componentType": 5126,
      "count": 2591,
      "max": [
        0.0,
        0.0
      ],
      "min": [
        0.0,
        0.0
      ],
      "type": "VEC2"
    },
    {
      "bufferView": 1,
      "byteOffset": 29384,
      "componentType": 5126,
      "count": 2591,
      "max": [
        0.837773323059082,
        0.835151195526123
      ],
      "min": [
        0.0,
        0.0
      ],
      "type": "VEC2"
    },
    {
      "bufferView": 0,
      "byteOffset": 8544,
      "componentType": 5125,
      "count": 7227,
      "type": "SCALAR"
    },
    {
      "bufferView": 2,
      "byteOffset": 75168,
      "componentType": 5126,
      "count": 150,
      "max": [
        0.298368364572525,
        0.3274320363998413,
        9.829907417297363
      ],
      "min": [
        -0.45659738779067993,
        -0.4604091942310333,
        7.313906192779541
      ],
      "type": "VEC3"
    },
    {
      "bufferView": 2,
      "byteOffset": 76968,
      "componentType": 5126,
      "count": 150,
      "max": [
        0.9961294531822205,
        0.9962511658668518,
        0.9996435642242432
      ],
      "min": [
        -0.9965774416923523,
        -0.9932292103767395,
        -0.9999841451644897
      ],
      "type": "VEC3"
    },
    {
      "bufferView": 1,
      "byteOffset": 50112,
      "componentType": 5126,
      "count": 150,
      "max": [
        0.0,
        0.0
      ],
      "min": [
        0.0,
        0.0
      ],
      "type": "VEC2"
    },
    {
      "bufferView": 1,
      "byteOffset": 51312,
      "componentType": 5126,
      "count": 150,
      "max": [
        0.6233969926834106,
        0.7160553932189941
      ],
      "min": [
        0.28288888931274414,
        0.12679481506347656
      ],
      "type": "VEC2"
    },
    {
      "bufferView": 0,
      "byteOffset": 37452,
      "componentType": 5125,
      "count": 600,
      "type": "SCALAR"
    },
    {
      "bufferView": 2,
      "byteOffset": 78768,
      "componentType": 5126,
      "count": 30,
      "max": [
        0.17489349842071533,
        0.18093827366828918,
        6.281097888946533
      ],
      "min": [
        -0.25779950618743896,
        -0.25175487995147705,
        -2.706162452697754
      ],
      "type": "VEC3"
    },
    {
      "bufferView": 2,
      "byteOffset": 79128,
      "componentType": 5126,
      "count": 30,
      "max": [
        0.9999955892562866,
        0.9999950528144836,
        0.002078983001410961
      ],
      "min": [
        -0.999994695186615,
        -0.9999951124191284,
        0.0020503350533545017
      ],
      "type": "VEC3"
    },
    {
      "bufferView": 1,
      "byteOffset": 52512,
      "componentType": 5126,
      "count": 30,
      "max": [
        0.0,
        0.0
      ],
      "min": [
        0.0,
        0.0
      ],
      "type": "VEC2"
    },
    {
      "bufferView": 1,
      "byteOffset": 52752,
      "componentType": 5126,
      "count": 30,
      "max": [
        0.4524289071559906,
        0.12551701068878174
      ],
      "min": [
        0.012720568105578423,
        0.11769644916057587
      ],
      "type": "VEC2"
    },
    {
      "bufferView": 0,
      "byteOffset": 39852,
      "componentType": 5125,
      "count": 72,
      "type": "SCALAR"
    },
    {
      "bufferView": 2,
      "byteOffset": 79488,
      "componentType": 5126,
      "count": 3567,
      "max": [
        0.6849443912506104,
        0.7502779364585876,
        9.690330505371094
      ],
      "min": [
        -0.771431028842926,
        -0.8056911826133728,
        7.29357385635376
      ],
      "type": "VEC3"
    },
    {
      "bufferView": 2,
      "byteOffset": 122292,
      "componentType": 5126,
      "count": 3567,
      "max": [
        0.9999221563339233,
        0.9997156262397766,
        0.9990628957748413
      ],
      "min": [
        -0.9991229176521301,
        -0.9997537732124329,
        -0.9999989867210388
      ],
      "type": "VEC3"
    },
    {
      "bufferView": 1,
      "byteOffset": 52992,
      "componentType": 5126,
      "count": 3567,
      "max": [
        0.8375158905982971,
        0.8395974636077881
      ],
      "min": [
        0.08935785293579102,
        0.0
      ],
      "type": "VEC2"
    },
    {
      "bufferView": 1,
      "byteOffset": 81528,
      "componentType": 5126,
      "count": 3567,
      "max": [
        0.0,
        0.0
      ],
      "min": [
        0.0,
        0.0
      ],
      "type": "VEC2"
    },
    {
      "bufferView": 0,
      "byteOffset": 40140,
      "componentType": 5125,
      "count": 8664,
      "type": "SCALAR"
    },
    {
      "bufferView": 2,
      "byteOffset": 165096,
      "componentType": 5126,
      "count": 187,
      "max": [
        0.9316275119781494,
        0.5872476100921631,
        0.91956627368927
      ],
      "min": [
        -0.8675323724746704,
        -0.6101080179214478,
        -0.7946013808250427
      ],
      "type": "VEC3"
    },
    {
      "bufferView": 2,
      "byteOffset": 167340,
      "componentType": 5126,
      "count": 187,
      "max": [
        0.9464120268821716,
        0.9960455894470215,
        0.9948657155036926
      ],
      "min": [
        -0.9369702339172363,
        -0.9992952346801758,
        -0.8478328585624695
      ],
      "type": "VEC3"
    },
    {
      "bufferView": 1,
      "byteOffset": 110064,
      "componentType": 5126,
      "count": 187,
      "max": [
        0.7990702390670776,
        0.5509637594223022
      ],
      "min": [
        0.21415650844573975,
        0.0
      ],
      "type": "VEC2"
    },
    {
      "bufferView": 0,
      "byteOffset": 74796,
      "componentType": 5125,
      "count": 792,
      "type": "SCALAR"
    },
    {
      "bufferView": 3,
      "componentType": 5126,
      "count": 301,
      "max": [
        6.0
      ],
      "min": [
        0.0
      ],
      "type": "SCALAR"
    },
    {
      "bufferView": 4,
      "componentType": 5126,
      "count": 301,
      "max": [
        -0.3140966296195984,
        935.1843872070313,
        5.149363040924072
      ],
      "min": [
        -0.3140966296195984,
        909.998046875,
        5.149363040924072
      ],
      "type": "VEC3"
    },
    {
      "bufferView": 3,
      "byteOffset": 1204,
      "componentType": 5126,
      "count": 301,
      "max": [
        6.0
      ],
      "min": [
        0.0
      ],
      "type": "SCALAR"
    },
    {
      "bufferView": 4,
      "byteOffset": 3612,
      "componentType": 5126,
      "count": 301,
      "max": [
        86.16948699951172,
        113.0478286743164,
        217.81988525390625
      ],
      "min": [
        86.16948699951172,
        113.0478286743164,
        185.14047241210938
      ],
      "type": "VEC3"
    },
    {
      "bufferView": 3,
      "byteOffset": 2408,
      "componentType": 5126,
      "count": 301,
      "max": [
        6.0
      ],
      "min": [
        0.0
      ],
      "type": "SCALAR"
    },
    {
      "bufferView": 5,
      "componentType": 5126,
      "count": 301,
      "max": [
        0.49737662076950073,
        0.707097053527832,
        0.7070971727371216,
        0.707097053527832
      ],
      "min": [
        -0.7070971727371216,
        -0.4991244673728943,
        -0.4991288483142853,
        -0.49737367033958435
      ],
      "type": "VEC4"
    }
  ],
  "animations": [
    {
      "channels": [
        {
          "sampler": 0,
          "target": {
            "node": 10,
            "path": "translation"
          }
        },
        {
          "sampler": 1,
          "target": {
            "node": 10,
            "path": "scale"
          }
        },
        {
          "sampler": 2,
          "target": {
            "node": 10,
            "path": "rotation"
          }
        }
      ],
      "name": "Burning",
      "samplers": [
        {
          "input": 29,
          "interpolation": "LINEAR",
          "output": 30
        },
        {
          "input": 31,
          "interpolation": "LINEAR",
          "output": 32
        },
        {
          "input": 33,
          "interpolation": "LINEAR",
          "output": 34
        }
      ]
    }
  ],
  "asset": {
    "extras": {
      "author": "Leon_dp (https://sketchfab.com/leondp)",
      "license": "CC-BY-4.0 (http://creativecommons.org/licenses/by/4.0/)",
      "source": "https://sketchfab.com/3d-models/non-textured-burning-torch-4-9cc957723157400fbf6373aee17e438a",
      "title": "Non-textured burning torch (4)"
    },
    "generator": "Sketchfab-12.68.0",
    "version": "2.0"
  },
  "bufferViews": [
    {
      "buffer": 0,
      "byteLength": 77964,
      "name": "floatBufferViews",
      "target": 34963
    },
    {
      "buffer": 0,
      "byteLength": 111560,
      "byteOffset": 77964,
      "byteStride": 8,
      "name": "floatBufferViews",
      "target": 34962
    },
    {
      "buffer": 0,
      "byteLength": 169584,
      "byteOffset": 189524,
      "byteStride": 12,
      "name": "floatBufferViews",
      "target": 34962
    },
    {
      "buffer": 0,
      "byteLength": 3612,
      "byteOffset": 359108,
      "name": "floatBufferViews"
    },
    {
      "buffer": 0,
      "byteLength": 7224,
      "byteOffset": 362720,
      "byteStride": 12,
      "name": "floatBufferViews"
    },
    {
      "buffer": 0,
      "byteLength": 4816,
      "byteOffset": 369944,
      "byteStride": 16,
      "name": "floatBufferViews"
    }
  ],
  "buffers": [
    {
      "byteLength": 374760,
      "uri": "scene.bin"
    }
  ],
  "extensionsUsed": [
    "KHR_materials_transmission"
  ],
  "materials": [
    {
      "doubleSided": true,
      "name": "metal",
      "pbrMetallicRoughness": {
        "baseColorFactor": [
          0.22841166119605247,
          0.25882427766656146,
          0.2855180324876753,
          1.0
        ],
        "metallicFactor": 0.9441368890185993,
        "roughnessFactor": 0.2747493448613416
      }
    },
    {
      "alphaMode": "BLEND",
      "doubleSided": true,
      "extensions": {
        "KHR_materials_transmission": {
          "transmissionFactor": 0.14706570843137612
        }
      },
      "name": "rope",
      "pbrMetallicRoughness": {
        "baseColorFactor": [
          1.0,
          0.057297834334599014,
          0.0,
          0.8529342915686239
        ],
        "metallicFactor": 0.0,
        "roughnessFactor": 0.49971575190461426
      }
    },
    {
      "alphaMode": "BLEND",
      "doubleSided": true,
      "emissiveFactor": [
        1.0,
        0.042203664667877644,
        0.0
      ],
      "name": "leather",
      "pbrMetallicRoughness": {
        "baseColorFactor": [
          1.0,
          1.0,
          1.0,
          0.9137360232019408
        ],
        "roughnessFactor": 0.28082951802467326
      }
    },
    {
      "doubleSided": true,
      "name": "wood",
      "pbrMetallicRoughness": {
        "baseColorFactor": [
          0.07268334402148537,
          0.041330110625998694,
          0.02120780062003171,
          1.0
        ],
        "metallicFactor": 0.1901954167654695,
        "roughnessFactor": 0.742922678437882
      }
    },
    {
      "doubleSided": true,
      "name": "metallic_clean",
      "pbrMetallicRoughness": {
        "baseColorFactor": [
          1.0,
          0.3980456015407227,
          0.0,
          1.0
        ],
        "roughnessFactor": 0.6097273650353562
      }
    },
    {
      "alphaMode": "BLEND",
      "doubleSided": true,
      "emissiveFactor": [
        0.7815172394660573,
        0.23091429155472581,
        0.0
      ],
      "extensions": {
        "KHR_materials_transmission": {
          "transmissionFactor": 0.8949270075211742
        }
      },
      "name": "fire_flame",
      "pbrMetallicRoughness": {
        "baseColorFactor": [
          0.0,
          0.0,
          0.0,
          0.25
        ],
        "metallicFactor": 0.0,
        "roughnessFactor": 0.9319765426919359
      }
    }
  ],
  "meshes": [
    {
      "name": "torche_metallic_clean.001_metal_0",
      "primitives": [
        {
          "attributes": {
            "NORMAL": 1,
            "POSITION": 0,
            "TEXCOORD_0": 2,
            "TEXCOORD_1": 3
          },
          "indices": 4,
          "material": 0,
          "mode": 4
        }
      ]
    },
    {
      "name": "torche_metallic_clean.001_rope_0",
      "primitives": [
        {
          "attributes": {
            "NORMAL": 6,
            "POSITION": 5,
            "TEXCOORD_0": 7,
            "TEXCOORD_1": 8
          },
          "indices": 9,
          "material": 1,
          "mode": 4
        }
      ]
    },
    {
      "name": "torche_metallic_clean.001_leather_0",
      "primitives": [
        {
          "attributes": {
            "NORMAL": 11,
            "POSITION": 10,
            "TEXCOORD_0": 12,
            "TEXCOORD_1": 13
          },
          "indices": 14,
          "material": 2,
          "mode": 4
        }
      ]
    },
    {
      "name": "torche_metallic_clean.001_wood_0",
      "primitives": [
        {
          "attributes": {
            "NORMAL": 16,
            "POSITION": 15,
            "TEXCOORD_0": 17,
            "TEXCOORD_1": 18
          },
          "indices": 19,
          "material": 3,
          "mode": 4
        }
      ]
    },
    {
      "name": "torche_metallic_clean.001_metallic_clean_0",
      "primitives": [
        {
          "attributes": {
            "NORMAL": 21,
            "POSITION": 20,
            "TEXCOORD_0": 22,
            "TEXCOORD_1": 23
          },
          "indices": 24,
          "material": 4,
          "mode": 4
        }
      ]
    },
    {
      "name": "torche_fire_flame.001_fire_flame_0",
      "primitives": [
        {
          "attributes": {
            "NORMAL": 26,
            "POSITION": 25,
            "TEXCOORD_0": 27
          },
          "indices": 28,
          "material": 5,
          "mode": 4
        }
      ]
    }
  ],
  "nodes": [
    {
      "children": [
        1
      ],
      "matrix": [
        0.1871040016412735,
        0.0,
        0.0,
        0.0,
        0.0,
        4.1545434124328983e-17,
        -0.1871040016412735,
        0.0,
        0.0,
        0.1871040016412735,
        4.1545434124328983e-17,
        0.0,
        0.0,
        1.0536702887975566e-07,
        -3.869794454658404e-06,
        1.0
      ],
      "name": "Sketchfab_model"
    },
    {
      "children": [
        2
      ],
      "matrix": [
        0.009999999776482582,
        0.0,
        0.0,
        0.0,
        0.0,
        0.0,
        0.009999999776482582,
        0.0,
        0.0,
        -0.009999999776482582,
        0.0,
        0.0,
        0.0,
        0.0,
        0.0,
        1.0
      ],
      "name": "3fcd361ec027415783a3cbb9055bb56f.fbx"
    },
    {
      "children": [
        3
      ],
      "name": "Object_2"
    },
    {
      "children": [
        4,
        10
      ],
      "name": "RootNode"
    },
    {
      "children": [
        5,
        6,
        7,
        8,
        9
      ],
      "name": "torche_metallic_clean.001",
      "rotation": [
        -0.7071068286895752,
        0.0,
        0.0,
        0.7071067094802856
      ],
      "scale": [
        100.0,
        100.0,
        100.0
      ]
    },
    {
      "mesh": 0,
      "name": "torche_metallic_clean.001_metal_0"
    },
    {
      "mesh": 1,
      "name": "torche_metallic_clean.001_rope_0"
    },
    {
      "mesh": 2,
      "name": "torche_metallic_clean.001_leather_0"
    },
    {
      "mesh": 3,
      "name": "torche_metallic_clean.001_wood_0"
    },
    {
      "mesh": 4,
      "name": "torche_metallic_clean.001_metallic_clean_0"
    },
    {
      "children": [
        11
      ],
      "name": "torche_fire_flame.001",
      "rotation": [
        -0.5669411420822144,
        0.42258474230766296,
        0.42258474230766296,
        0.5669410824775696
      ],
      "scale": [
        86.16948699951172,
        113.0478286743164,
        185.14080810546875
      ],
      "translation": [
        -0.3140966296195984,
        929.42578125,
        5.149363040924072
      ]
    },
    {
      "mesh": 5,
      "name": "torche_fire_flame.001_fire_flame_0"
    }
  ],
  "scene": 0,
  "scenes": [
    {
      "name": "Sketchfab_Scene",
      "nodes": [
        0
      ]
    }
  ]
}
