{
  "accessors": [
    {
      "bufferView": 2,
      "componentType": 5126,
      "count": 65532,
      "max": [
        20.287511825561523,
        7.956098556518555,
        4.314157009124756
      ],
      "min": [
        -11.145645141601563,
        -7.92904806137085,
        -5.846225261688232
      ],
      "type": "VEC3"
    },
    {
      "bufferView": 2,
      "byteOffset": 786384,
      "componentType": 5126,
      "count": 65532,
      "max": [
        0.9998937249183655,
        0.9999986290931702,
        0.9999204874038696
      ],
      "min": [
        -0.9999898672103882,
        -1.0,
        -0.9573253393173218
      ],
      "type": "VEC3"
    },
    {
      "bufferView": 1,
      "componentType": 5126,
      "count": 65532,
      "max": [
        0.9951186180114746,
        0.9888995885848999
      ],
      "min": [
        0.023586153984069824,
        0.0
      ],
      "type": "VEC2"
    },
    {
      "bufferView": 1,
      "byteOffset": 524256,
      "componentType": 5126,
      "count": 65532,
      "max": [
        0.9951186180114746,
        0.9888995885848999
      ],
      "min": [
        0.023586153984069824,
        0.0
      ],
      "type": "VEC2"
    },
    {
      "bufferView": 1,
      "byteOffset": 1048512,
      "componentType": 5126,
      "count": 65532,
      "max": [
        0.6000000238418579,
        1.0
      ],
      "min": [
        0.0,
        0.0
      ],
      "type": "VEC2"
    },
    {
      "bufferView": 0,
      "componentType": 5125,
      "count": 166443,
      "type": "SCALAR"
    },
    {
      "bufferView": 2,
      "byteOffset": 1572768,
      "componentType": 5126,
      "count": 65532,
      "max": [
        22.91472053527832,
        7.956369876861572,
        5.4394989013671875
      ],
      "min": [
        -15.795310020446777,
        -7.993452548980713,
        -6.402116298675537
      ],
      "type": "VEC3"
    },
    {
      "bufferView": 2,
      "byteOffset": 2359152,
      "componentType": 5126,
      "count": 65532,
      "max": [
        1.0,
        1.0,
        1.0
      ],
      "min": [
        -1.0,
        -1.0,
        -1.0
      ],
      "type": "VEC3"
    },
    {
      "bufferView": 1,
      "byteOffset": 1572768,
      "componentType": 5126,
      "count": 65532,
      "max": [
        1.0,
        1.0
      ],
      "min": [
        0.0,
        0.0
      ],
      "type": "VEC2"
    },
    {
      "bufferView": 1,
      "byteOffset": 2097024,
      "componentType": 5126,
      "count": 65532,
      "max": [
        1.0,
        1.0
      ],
      "min": [
        0.0,
        0.0
      ],
      "type": "VEC2"
    },
    {
      "bufferView": 1,
      "byteOffset": 2621280,
      "componentType": 5126,
      "count": 65532,
      "max": [
        0.0,
        0.0
      ],
      "min": [
        0.0,
        0.0
      ],
      "type": "VEC2"
    },
    {
      "bufferView": 0,
      "byteOffset": 665772,
      "componentType": 5125,
      "count": 232959,
      "type": "SCALAR"
    },
    {
      "bufferView": 2,
      "byteOffset": 3145536,
      "componentType": 5126,
      "count": 27154,
      "max": [
        20.117935180664063,
        4.02325439453125,
        5.4394989013671875
      ],
      "min": [
        -7.932422637939453,
        -4.120343208312988,
        -6.486530780792236
      ],
      "type": "VEC3"
    },
    {
      "bufferView": 2,
      "byteOffset": 3471384,
      "componentType": 5126,
      "count": 27154,
      "max": [
        1.0,
        0.9999906420707703,
        1.0
      ],
      "min": [
        -1.0,
        -0.9998077750205994,
        -1.0
      ],
      "type": "VEC3"
    },
    {
      "bufferView": 1,
      "byteOffset": 3145536,
      "componentType": 5126,
      "count": 27154,
      "max": [
        0.9857177734375,
        0.9887623190879822
      ],
      "min": [
        0.06396007537841797,
        0.09475738555192947
      ],
      "type": "VEC2"
    },
    {
      "bufferView": 1,
      "byteOffset": 3362768,
      "componentType": 5126,
      "count": 27154,
      "max": [
        0.9857177734375,
        0.9887623190879822
      ],
      "min": [
        0.06396007537841797,
        0.09475738555192947
      ],
      "type": "VEC2"
    },
    {
      "bufferView": 1,
      "byteOffset": 3580000,
      "componentType": 5126,
      "count": 27154,
      "max": [
        0.0,
        0.0
      ],
      "min": [
        0.0,
        0.0
      ],
      "type": "VEC2"
    },
    {
      "bufferView": 0,
      "byteOffset": 1597608,
      "componentType": 5125,
      "count": 74232,
      "type": "SCALAR"
    },
    {
      "bufferView": 2,
      "byteOffset": 3797232,
      "componentType": 5126,
      "count": 34,
      "max": [
        11.121655464172363,
        3.543550968170166,
        -6.402115345001221
      ],
      "min": [
        -11.366034507751465,
        -3.580634117126465,
        -6.402116298675537
      ],
      "type": "VEC3"
    },
    {
      "bufferView": 2,
      "byteOffset": 3797640,
      "componentType": 5126,
      "count": 34,
      "max": [
        0.40160268545150757,
        0.39409998059272766,
        0.9198096990585327
      ],
      "min": [
        -0.40158572793006897,
        -0.394106924533844,
        0.9157286882400513
      ],
      "type": "VEC3"
    },
    {
      "bufferView": 1,
      "byteOffset": 3797232,
      "componentType": 5126,
      "count": 34,
      "max": [
        0.0,
        0.0
      ],
      "min": [
        0.0,
        0.0
      ],
      "type": "VEC2"
    },
    {
      "bufferView": 1,
      "byteOffset": 3797504,
      "componentType": 5126,
      "count": 34,
      "max": [
        0.1029214859008789,
        0.8429625630378723
      ],
      "min": [
        0.0,
        0.5210757255554199
      ],
      "type": "VEC2"
    },
    {
      "bufferView": 0,
      "byteOffset": 1894536,
      "componentType": 5125,
      "count": 96,
      "type": "SCALAR"
    }
  ],
  "asset": {
    "extras": {
      "author": "dylanheyes (https://sketchfab.com/dylanheyes)",
      "license": "CC-BY-4.0 (http://creativecommons.org/licenses/by/4.0/)",
      "source": "https://sketchfab.com/3d-models/bathhouse-aca612273c874155afddeb15a6574b12",
      "title": "Bathhouse"
    },
    "generator": "Sketchfab-15.5.0",
    "version": "2.0"
  },
  "bufferViews": [
    {
      "buffer": 0,
      "byteLength": 1894920,
      "name": "floatBufferViews",
      "target": 34963
    },
    {
      "buffer": 0,
      "byteLength": 3797776,
      "byteOffset": 1894920,
      "byteStride": 8,
      "name": "floatBufferViews",
      "target": 34962
    },
    {
      "buffer": 0,
      "byteLength": 3798048,
      "byteOffset": 5692696,
      "byteStride": 12,
      "name": "floatBufferViews",
      "target": 34962
    }
  ],
  "buffers": [
    {
      "byteLength": 9490744,
      "uri": "scene.bin"
    }
  ],
  "extensionsUsed": [
    "KHR_materials_clearcoat"
  ],
  "images": [
    {
      "uri": "textures/Bathhouse_baseColor.png"
    }
  ],
  "materials": [
    {
      "emissiveFactor": [
        1.0,
        1.0,
        1.0
      ],
      "emissiveTexture": {
        "index": 0,
        "texCoord": 1
      },
      "name": "Bathhouse",
      "pbrMetallicRoughness": {
        "baseColorTexture": {
          "index": 0
        },
        "metallicFactor": 0.0,
        "roughnessFactor": 0.8211145618000169
      }
    },
    {
      "extensions": {
        "KHR_materials_clearcoat": {
          "clearcoatFactor": 1.0,
          "clearcoatRoughnessFactor": 0.04
        }
      },
      "name": "Water",
      "pbrMetallicRoughness": {
        "baseColorFactor": [
          0.6328588001534493,
          0.6337982524022552,
          0.6339202381544493,
          1.0
        ],
        "roughnessFactor": 0.0
      }
    }
  ],
  "meshes": [
    {
      "name": "Bathhouse_Bathhouse_0",
      "primitives": [
        {
          "attributes": {
            "NORMAL": 1,
            "POSITION": 0,
            "TEXCOORD_0": 2,
            "TEXCOORD_1": 3,
            "TEXCOORD_2": 4
          },
          "indices": 5,
          "material": 0,
          "mode": 4
        }
      ]
    },
    {
      "name": "Bathhouse_Bathhouse_0",
      "primitives": [
        {
          "attributes": {
            "NORMAL": 7,
            "POSITION": 6,
            "TEXCOORD_0": 8,
            "TEXCOORD_1": 9,
            "TEXCOORD_2": 10
          },
          "indices": 11,
          "material": 0,
          "mode": 4
        }
      ]
    },
    {
      "name": "Bathhouse_Bathhouse_0",
      "primitives": [
        {
          "attributes": {
            "NORMAL": 13,
            "POSITION": 12,
            "TEXCOORD_0": 14,
            "TEXCOORD_1": 15,
            "TEXCOORD_2": 16
          },
          "indices": 17,
          "material": 0,
          "mode": 4
        }
      ]
    },
    {
      "name": "Bathhouse_Water_0",
      "primitives": [
        {
          "attributes": {
            "NORMAL": 19,
            "POSITION": 18,
            "TEXCOORD_0": 20,
            "TEXCOORD_1": 21
          },
          "indices": 22,
          "material": 1,
          "mode": 4
        }
      ]
    }
  ],
  "nodes": [
    {
      "children": [
        1
      ],
      "matrix": [
        0.5606309175491333,
        0.0,
        0.0,
        0.0,
        0.0,
        1.244850705959551e-16,
        -0.5606309175491333,
        0.0,
        0.0,
        0.5606309175491333,
        1.244850705959551e-16,
        0.0,
        0.0,
        0.0,
        0.0,
        1.0
      ],
      "name": "Sketchfab_model"
    },
    {
      "children": [
        2
      ],
      "matrix": [
        0.009999999776482582,
        0.0,
        0.0,
        0.0,
        0.0,
        0.0,
        0.009999999776482582,
        0.0,
        0.0,
        -0.009999999776482582,
        0.0,
        0.0,
        0.0,
        0.0,
        0.0,
        1.0
      ],
      "name": "Bathhouse.fbx"
    },
    {
      "children": [
        3
      ],
      "name": "RootNode"
    },
    {
      "children": [
        4,
        5,
        6,
        7
      ],
      "matrix": [
        100.0,
        0.0,
        0.0,
        0.0,
        0.0,
        -1.629206793918314e-05,
        -99.99999999999868,
        0.0,
        0.0,
        99.99999999999868,
        -1.629206793918314e-05,
        0.0,
        12.218974113464355,
        -378.5838623046875,
        -1.8544085025787354,
        1.0
      ],
      "name": "Bathhouse"
    },
    {
      "mesh": 0,
      "name": "Bathhouse_Bathhouse_0"
    },
    {
      "mesh": 1,
      "name": "Bathhouse_Bathhouse_0"
    },
    {
      "mesh": 2,
      "name": "Bathhouse_Bathhouse_0"
    },
    {
      "mesh": 3,
      "name": "Bathhouse_Water_0"
    }
  ],
  "samplers": [
    {
      "magFilter": 9729,
      "minFilter": 9987,
      "wrapS": 10497,
      "wrapT": 10497
    }
  ],
  "scene": 0,
  "scenes": [
    {
      "name": "Sketchfab_Scene",
      "nodes": [
        0
      ]
    }
  ],
  "textures": [
    {
      "sampler": 0,
      "source": 0
    }
  ]
}
